<svg width="24" height="25" viewBox="0 0 24 25" fill="none" xmlns="http://www.w3.org/2000/svg">
<path d="M7 10H17V14.5V17V18L16.5 18.5L16 19.5L14.5 20H12H10.3333H7V10Z" fill="url(#paint0_linear_9_94)"/>
<path d="M6 3C5.73478 3 5.48043 3.10536 5.29289 3.29289C5.10536 3.48043 5 3.73478 5 4V6C5 6.26522 5.10536 6.51957 5.29289 6.70711C5.48043 6.89464 5.73478 7 6 7C6.26522 7 6.51957 6.89464 6.70711 6.70711C6.89464 6.51957 7 6.26522 7 6V4C7 3.73478 6.89464 3.48043 6.70711 3.29289C6.51957 3.10536 6.26522 3 6 3Z" fill="#172B4D"/>
<path fill-rule="evenodd" clip-rule="evenodd" d="M13 22C14.418 21.9998 15.7901 21.4976 16.8732 20.5824C17.9562 19.6672 18.6803 18.3981 18.917 17H19C20.0609 17 21.0783 16.5786 21.8284 15.8284C22.5786 15.0783 23 14.0609 23 13C23 11.9391 22.5786 10.9217 21.8284 10.1716C21.0783 9.42143 20.0609 9 19 9V8H1V16C1 17.5913 1.63214 19.1174 2.75736 20.2426C3.88258 21.3679 5.4087 22 7 22H13ZM3 10V16C3 17.0609 3.42143 18.0783 4.17157 18.8284C4.92172 19.5786 5.93913 20 7 20H13C14.0609 20 15.0783 19.5786 15.8284 18.8284C16.5786 18.0783 17 17.0609 17 16V10H3ZM21 13C21 13.5304 20.7893 14.0391 20.4142 14.4142C20.0391 14.7893 19.5304 15 19 15V11C19.5304 11 20.0391 11.2107 20.4142 11.5858C20.7893 11.9609 21 12.4696 21 13Z" fill="#172B4D"/>
<path d="M9 4C9 3.73478 9.10536 3.48043 9.29289 3.29289C9.48043 3.10536 9.73478 3 10 3C10.2652 3 10.5196 3.10536 10.7071 3.29289C10.8946 3.48043 11 3.73478 11 4V6C11 6.26522 10.8946 6.51957 10.7071 6.70711C10.5196 6.89464 10.2652 7 10 7C9.73478 7 9.48043 6.89464 9.29289 6.70711C9.10536 6.51957 9 6.26522 9 6V4ZM14 3C13.7348 3 13.4804 3.10536 13.2929 3.29289C13.1054 3.48043 13 3.73478 13 4V6C13 6.26522 13.1054 6.51957 13.2929 6.70711C13.4804 6.89464 13.7348 7 14 7C14.2652 7 14.5196 6.89464 14.7071 6.70711C14.8946 6.51957 15 6.26522 15 6V4C15 3.73478 14.8946 3.48043 14.7071 3.29289C14.5196 3.10536 14.2652 3 14 3Z" fill="#172B4D"/>
<defs>
<linearGradient id="paint0_linear_9_94" x1="17" y1="14.5" x2="7.96499" y2="15.8689" gradientUnits="userSpaceOnUse">
<stop stop-color="#EBDFF7"/>
<stop offset="1" stop-color="#EBDFF7" stop-opacity="0"/>
</linearGradient>
</defs>
</svg>
