<svg width="14" height="15" viewBox="0 0 14 15" fill="none" xmlns="http://www.w3.org/2000/svg">
<path d="M12.9234 6.46904L12.9235 6.4692C12.9843 6.42389 13.0294 6.36067 13.0525 6.28842C13.0756 6.21617 13.0755 6.1385 13.0522 6.06631C13.029 5.99412 12.9837 5.93103 12.9227 5.88588C12.8618 5.84073 12.7882 5.81579 12.7124 5.81455L12.7017 5.81437L12.7017 5.81426L9.20166 5.68204L9.19387 5.68174L9.1861 5.6812C9.07269 5.67338 8.96397 5.63292 8.87303 5.56472C8.78226 5.49664 8.71306 5.40381 8.67375 5.29737L8.67386 5.29766L9.14276 5.12406L8.67354 5.29678L12.9234 6.46904ZM12.9234 6.46904L12.9123 6.4778L12.9234 6.46904ZM10.3621 13.027L10.362 13.0271C10.4222 13.0699 10.4942 13.0929 10.568 13.0929C10.6415 13.0929 10.7132 13.0702 10.7732 13.0278C10.8324 12.985 10.8771 12.9249 10.901 12.8558C10.925 12.7863 10.9269 12.7111 10.9064 12.6406L10.9056 12.6377L10.9056 12.6377L9.95337 9.27959C9.92037 9.16561 9.92277 9.04424 9.96033 8.93158C9.99721 8.82092 10.0663 8.72389 10.1586 8.65282M10.3621 13.027L10.1586 8.65282M10.3621 13.027L10.3506 13.0193L10.3621 13.027ZM10.1586 8.65282L10.1551 8.65558L10.465 9.04795L10.1678 8.64585C10.1647 8.64815 10.1616 8.65047 10.1586 8.65282ZM7.07387 11.4902L6.79549 11.0748L6.7939 11.0759C6.79252 11.0768 6.79115 11.0778 6.78978 11.0787L7.07387 11.4902ZM7.45106 11.0759L7.44947 11.0748L7.17109 11.4902L7.45518 11.0787C7.45381 11.0778 7.45244 11.0768 7.45106 11.0759Z" fill="url(#paint0_linear_98_1828)" stroke="#9C59DF"/>
<defs>
<linearGradient id="paint0_linear_98_1828" x1="1" y1="7.46852" x2="7.5" y2="7.46852" gradientUnits="userSpaceOnUse">
<stop stop-color="#9C59DF"/>
<stop offset="0.963542" stop-color="#9C59DF"/>
<stop offset="0.989583" stop-color="#9C59DF" stop-opacity="0"/>
</linearGradient>
</defs>
</svg>
