<svg width="29" height="29" viewBox="0 0 29 29" fill="none" xmlns="http://www.w3.org/2000/svg">
<path d="M14.5 12.035H17.7843C18.2207 12.035 18.6393 12.2084 18.948 12.517C19.2566 12.8256 19.43 13.2442 19.43 13.6807V18.125C19.43 18.5615 19.2566 18.9801 18.948 19.2887C18.6393 19.5973 18.2207 19.7707 17.7843 19.7707H14.5V12.035Z" fill="url(#paint0_linear_9_65)"/>
<path d="M4.36451 5.64774H4.36453L4.36448 5.64237C4.36242 5.43341 4.421 5.22835 4.53313 5.05202C4.64452 4.87685 4.80401 4.73752 4.99248 4.65065C7.98847 3.34477 11.2265 2.68642 14.4946 2.71871L14.4946 2.71882L14.5054 2.71871C17.7735 2.68642 21.0115 3.34477 24.0075 4.65065C24.196 4.73752 24.3555 4.87686 24.4669 5.05202C24.579 5.22835 24.6376 5.43341 24.6355 5.64236L24.6355 5.64236V5.64774V13.9923C24.6355 13.9923 24.6355 13.9924 24.6355 13.9925C24.6345 16.5184 23.8686 18.9849 22.4387 21.0671C21.0089 23.1492 18.9821 24.7496 16.6251 25.6576C16.6249 25.6577 16.6248 25.6578 16.6246 25.6578L15.4876 26.0923L15.4876 26.0923L15.4835 26.0939C14.8512 26.3415 14.1488 26.3415 13.5165 26.0939L13.5124 26.0923L12.3755 25.6578C12.3753 25.6578 12.3751 25.6577 12.3749 25.6576C10.0179 24.7496 7.99116 23.1492 6.56132 21.0671C5.13141 18.9849 4.36553 16.5184 4.36451 13.9925C4.36451 13.9924 4.36451 13.9923 4.36451 13.9923L4.36451 5.64774Z" stroke="#172B4D" stroke-width="1.0875"/>
<path d="M11.2157 12.5788H11.2157H17.7842C18.0756 12.5788 18.3552 12.6942 18.5617 12.8998C18.768 13.1052 18.8847 13.3839 18.8862 13.6749V18.6035C18.8862 18.8958 18.7701 19.1761 18.5634 19.3828C18.3568 19.5894 18.0765 19.7055 17.7842 19.7055H11.2157C10.9234 19.7055 10.6431 19.5894 10.4365 19.3828C10.2298 19.1761 10.1137 18.8958 10.1137 18.6035V13.6748C10.1153 13.3838 10.2319 13.1052 10.4382 12.8998C10.6447 12.6942 10.9243 12.5788 11.2157 12.5788Z" stroke="#172B4D" stroke-width="1.0875"/>
<path d="M12.5621 9.5643C13.0761 9.05036 13.7731 8.76163 14.4999 8.76163C15.2268 8.76163 15.9238 9.05036 16.4378 9.5643C16.9517 10.0782 17.2404 10.7753 17.2404 11.5021V12.6041H11.7594V11.5021C11.7594 10.7753 12.0482 10.0782 12.5621 9.5643Z" stroke="#172B4D" stroke-width="1.0875"/>
<path d="M14.3 15C14.4978 15 14.6912 15.0586 14.8556 15.1685C15.0201 15.2784 15.1482 15.4346 15.2239 15.6173C15.2996 15.8 15.3194 16.0011 15.2808 16.1951C15.2422 16.3891 15.147 16.5673 15.0072 16.7071C14.8673 16.847 14.6891 16.9422 14.4951 16.9808C14.3012 17.0194 14.1001 16.9996 13.9174 16.9239C13.7346 16.8482 13.5785 16.72 13.4686 16.5556C13.3587 16.3911 13.3 16.1978 13.3 16C13.3 15.7348 13.4054 15.4804 13.5929 15.2929C13.7805 15.1054 14.0348 15 14.3 15Z" fill="#172B4D"/>
<defs>
<linearGradient id="paint0_linear_9_65" x1="18.85" y1="15.95" x2="15.225" y2="15.95" gradientUnits="userSpaceOnUse">
<stop stop-color="#E685FE" stop-opacity="0.51"/>
<stop offset="1" stop-color="#9C59DF" stop-opacity="0.04"/>
</linearGradient>
</defs>
</svg>
