<svg width="26" height="25" viewBox="0 0 26 25" fill="none" xmlns="http://www.w3.org/2000/svg">
<g clip-path="url(#clip0_9_76)">
<path fill-rule="evenodd" clip-rule="evenodd" d="M13.523 21.3932C12.2439 25.1966 2.36824 24.8979 1.27026 21.3932V16.1993C5.48243 18.775 9.96959 18.0121 13.523 16.1993V21.3932Z" fill="#EBDFF7"/>
<path fill-rule="evenodd" clip-rule="evenodd" d="M7.39667 18.0128C10.7805 18.0128 13.523 16.6412 13.523 14.95C13.523 13.2581 10.7805 11.8865 7.39667 11.8865C4.01356 11.8865 1.271 13.2581 1.271 14.95C1.271 16.6412 4.01356 18.0128 7.39667 18.0128Z" stroke="#364353" stroke-width="1.35135" stroke-linecap="round" stroke-linejoin="round"/>
<path d="M1.27075 14.9493V21.075C1.27075 22.7669 4.01332 24.1385 7.39643 24.1385C10.7802 24.1385 13.5235 22.7669 13.5235 21.075V14.9493" stroke="#364353" stroke-width="1.35135" stroke-linecap="round" stroke-linejoin="round"/>
<path d="M13.523 18.0128C13.523 19.7047 10.7797 21.0757 7.39661 21.0757C4.01283 21.0757 1.27026 19.7047 1.27026 18.0128" stroke="#364353" stroke-width="1.35135" stroke-linecap="round" stroke-linejoin="round"/>
<path d="M16.5865 16.4811H22.7122C23.5582 16.4811 24.244 15.7946 24.244 14.9493V2.69728C24.244 1.85134 23.5582 1.16553 22.7122 1.16553H2.80275C1.95681 1.16553 1.271 1.85134 1.271 2.69728V10.3615" stroke="#364353" stroke-width="1.35135" stroke-linecap="round" stroke-linejoin="round"/>
<path d="M9.69397 8.82295C9.69397 7.41214 10.6582 6.18376 12.0284 5.84862C13.3987 5.51281 14.8217 6.15741 15.4737 7.40808C16.1257 8.66011 15.8386 10.1946 14.7771 11.1256" stroke="#364353" stroke-width="1.35135" stroke-linecap="round" stroke-linejoin="round"/>
<path fill-rule="evenodd" clip-rule="evenodd" d="M5.09978 4.61115C5.31059 4.61115 5.48222 4.78277 5.48222 4.99425C5.48222 5.20574 5.31059 5.37736 5.09978 5.37736C4.8883 5.37736 4.71667 5.20574 4.71667 4.99425C4.71667 4.78277 4.8883 4.61115 5.09978 4.61115Z" stroke="#364353" stroke-width="1.35135" stroke-linecap="round" stroke-linejoin="round"/>
<path d="M20.4148 12.2696C20.6263 12.2696 20.7979 12.4412 20.7979 12.652C20.7979 12.8635 20.6263 13.0351 20.4148 13.0351C20.204 13.0351 20.0323 12.8635 20.0323 12.652C20.0323 12.4412 20.204 12.2696 20.4148 12.2696" stroke="#364353" stroke-width="1.35135" stroke-linecap="round" stroke-linejoin="round"/>
</g>
<defs>
<clipPath id="clip0_9_76">
<rect width="25" height="25" fill="white" transform="translate(0.5)"/>
</clipPath>
</defs>
</svg>
