<svg width="617" height="426" viewBox="0 0 617 426" fill="none" xmlns="http://www.w3.org/2000/svg">
<g clip-path="url(#clip0_2_3140)">
<path d="M60.9442 394.754C61.2105 404.689 62.8758 414.537 65.8909 424.008C65.9577 424.228 66.0319 424.444 66.1041 424.664H84.5626C84.5432 424.467 84.5232 424.247 84.5038 424.008C83.2731 409.866 90.3041 324.822 98.7884 310.104C98.045 311.298 59.513 349.82 60.9442 394.754Z" fill="#E6E6E6"/>
<path d="M62.3289 424.008C62.4833 424.227 62.6437 424.447 62.8082 424.664H76.6562C76.5513 424.477 76.4296 424.257 76.2886 424.008C74.0011 419.881 67.2301 407.544 60.9451 394.754C54.1936 381.009 47.9941 366.743 48.5162 361.58C48.3544 362.744 43.6805 398.244 62.3289 424.008Z" fill="#E6E6E6"/>
<path d="M286.787 409.468C286.923 414.515 287.769 419.519 289.301 424.33C289.335 424.442 289.372 424.552 289.409 424.664H298.787C298.777 424.564 298.767 424.452 298.757 424.33C298.132 417.146 301.704 373.938 306.015 366.46C305.637 367.067 286.06 386.638 286.787 409.468Z" fill="#E6E6E6"/>
<path d="M287.491 424.33C287.57 424.442 287.651 424.554 287.735 424.664H294.77C294.717 424.569 294.655 424.457 294.583 424.33C293.421 422.234 289.981 415.966 286.788 409.468C283.358 402.485 280.208 395.237 280.473 392.613C280.391 393.205 278.017 411.241 287.491 424.33Z" fill="#E6E6E6"/>
<path d="M231.267 121.704L207.396 138.674L222.249 140.264L242.939 122.766L231.267 121.704Z" fill="#3F3D56"/>
<path d="M137.874 411.462L152.232 411.461L159.062 356.111L137.872 356.112L137.874 411.462Z" fill="#9F616A"/>
<path d="M134.212 406.777L162.487 406.776H162.488C167.267 406.776 171.85 408.674 175.229 412.051C178.609 415.428 180.507 420.009 180.507 424.785V425.371L134.213 425.372L134.212 406.777Z" fill="#2F2E41"/>
<path d="M128.848 213.763C128.848 213.763 122.625 220.794 132.929 248.198L131.114 398.461L164.504 397.81L171.843 324.513L185.207 217.551L128.848 213.763Z" fill="#2F2E41"/>
<path d="M95.5108 190.043C93.5381 190.038 91.6451 189.264 90.2336 187.887C88.8221 186.509 88.0032 184.636 87.9507 182.665L86.3838 123.644L113.195 72.8048C113.804 71.66 114.695 70.6892 115.784 69.9842C116.872 69.2792 118.123 68.8633 119.417 68.7759L139.85 67.4647L138.085 186.435L96.1754 190.015C95.9529 190.034 95.7314 190.043 95.5108 190.043Z" fill="#9C59DF"/>
<path d="M196.659 234.538L196.293 234.482C153.578 227.971 121.344 221.729 121.023 221.667L120.623 221.589L131.821 194.368C131.732 191.524 129.308 111.649 133.948 88.6999C138.44 66.4841 159.613 62.8433 162.026 62.5008L164.449 54.4777L195.056 70.3963L200.395 88.759L201.479 139.087L196.659 234.538Z" fill="#3F3D56"/>
<path d="M154.596 158.346C134.876 158.346 118.833 136.916 118.833 110.575C118.833 84.2338 134.876 62.8038 154.596 62.8038C174.316 62.8038 190.36 84.2338 190.36 110.575C190.36 136.916 174.316 158.346 154.596 158.346ZM154.596 67.4807C137.457 67.4807 123.512 86.8127 123.512 110.575C123.512 134.337 137.457 153.669 154.596 153.669C171.736 153.669 185.68 134.337 185.68 110.575C185.68 86.8127 171.736 67.4807 154.596 67.4807Z" fill="#9C59DF"/>
<path d="M215.093 130.953C213.715 130.952 212.351 131.237 211.088 131.789C209.825 132.341 208.691 133.148 207.755 134.16H156.309L137.464 138.169L140.558 162.021L207.594 147.611C208.703 148.864 210.11 149.819 211.684 150.389C213.258 150.959 214.95 151.125 216.605 150.874C218.26 150.622 219.825 149.96 221.159 148.948C222.492 147.936 223.551 146.607 224.237 145.081C224.924 143.555 225.218 141.881 225.091 140.213C224.965 138.544 224.422 136.934 223.513 135.529C222.603 134.124 221.356 132.969 219.886 132.17C218.415 131.37 216.767 130.952 215.093 130.953Z" fill="#9F616A"/>
<path d="M211.316 51.098C220.999 41.4202 220.999 25.7295 211.316 16.0517C201.633 6.37392 185.934 6.37393 176.251 16.0517C166.569 25.7295 166.569 41.4202 176.251 51.098C185.934 60.7757 201.633 60.7757 211.316 51.098Z" fill="#9F616A"/>
<path d="M170.464 13.7633L169.262 11.3453L175.31 8.3418C175.31 8.3418 181.982 -2.50892 194.056 0.540368C206.13 3.58966 211.562 5.4146 211.562 5.4146L217.595 8.4486L214.567 11.4597L219.999 13.2847L216.37 15.0868L220.592 17.5124L218.319 29.9472C218.319 29.9472 214.544 20.5159 207.286 24.1201C200.028 27.7242 186.752 22.257 186.752 22.257L175.219 44.5666C175.219 44.5666 172.839 36.746 168.597 38.8313C168.597 38.8314 157.759 21.58 170.464 13.7633Z" fill="#2F2E41"/>
<path d="M385.904 166.329L384.845 146.463L374.149 137.777L367.953 156.173L333.297 202.37C331.659 202.632 330.13 203.358 328.891 204.462C327.653 205.565 326.757 207 326.309 208.597C325.86 210.194 325.879 211.886 326.363 213.472C326.847 215.059 327.775 216.474 329.038 217.549C330.301 218.625 331.846 219.316 333.49 219.542C335.134 219.768 336.808 219.518 338.314 218.822C339.821 218.127 341.096 217.014 341.99 215.617C342.884 214.22 343.358 212.596 343.357 210.937C343.357 210.82 343.344 210.707 343.34 210.591L385.904 166.329Z" fill="#FFB7B7"/>
<path d="M406.5 416.701L398.305 416.701L394.406 385.106L406.502 385.107L406.5 416.701Z" fill="#FFB7B7"/>
<path d="M408.59 424.641L382.165 424.64V424.306C382.165 421.58 383.249 418.965 385.178 417.037C387.107 415.109 389.723 414.026 392.45 414.026H392.451L408.591 414.027L408.59 424.641Z" fill="#2F2E41"/>
<path d="M444.603 416.701L436.408 416.701L432.509 385.106L444.604 385.107L444.603 416.701Z" fill="#FFB7B7"/>
<path d="M446.693 424.641L420.268 424.64V424.306C420.268 421.58 421.352 418.965 423.281 417.037C425.21 415.109 427.826 414.026 430.554 414.026H430.554L446.694 414.027L446.693 424.641Z" fill="#2F2E41"/>
<path d="M435.941 83.3395C439.411 69.0206 442.351 52.8705 435.807 39.6827C431.267 30.5324 414.471 27.4509 404.842 30.7474C395.214 34.044 388.253 42.9876 385.191 52.7391C382.13 62.4905 382.485 72.9984 383.82 83.1357C401.527 82.7957 419.235 82.4557 435.941 83.3395Z" fill="#2F2E41"/>
<path d="M415.963 80.8064C425.97 75.3392 429.647 62.7993 424.177 52.7979C418.707 42.7965 406.161 39.1209 396.154 44.5881C386.148 50.0554 382.47 62.5952 387.94 72.5967C393.41 82.5981 405.957 86.2737 415.963 80.8064Z" fill="#FFB8B8"/>
<path d="M431.302 58.4459C431.368 54.9724 430.734 51.5211 429.439 48.2971C428.144 45.0732 426.213 42.1423 423.763 39.6788C421.312 37.2152 418.39 35.2691 415.172 33.9562C411.954 32.6433 408.505 31.9903 405.029 32.0361C401.553 32.0819 398.122 32.8255 394.94 34.2228C391.758 35.62 388.889 37.6424 386.504 40.1697C384.119 42.697 382.266 45.6777 381.056 48.9346C379.847 52.1916 379.304 55.6584 379.462 59.129C397.136 59.1665 414.81 59.204 431.302 58.4459Z" fill="#2F2E41"/>
<path d="M372.9 187.038C372.9 187.038 369.54 235.819 371.363 250.7C373.187 265.58 393.041 395.672 393.041 395.672L408.018 395.645L412.464 242.34L430.175 397.135L445.663 395.525L454.449 244.108C454.449 244.108 453.072 187.42 441.873 181.735L372.9 187.038Z" fill="#2F2E41"/>
<path d="M396.392 235.393C385.392 235.39 374.55 232.766 364.767 227.739L364.553 227.63L372.831 172.728L372.294 107.297C372.279 105.501 372.622 103.72 373.304 102.058C373.985 100.396 374.99 98.8862 376.262 97.6169C377.533 96.3476 379.044 95.344 380.708 94.6647C382.371 93.9855 384.154 93.6441 385.95 93.6606L430.371 94.0681C432.338 94.0861 434.279 94.5085 436.076 95.3088C437.872 96.1092 439.485 97.2705 440.813 98.7205C442.141 100.17 443.156 101.878 443.796 103.737C444.435 105.596 444.685 107.567 444.53 109.526L440.373 161.981L454.12 204.556L451.73 207.731C445.288 216.32 436.934 223.291 427.329 228.092C417.724 232.894 407.132 235.393 396.392 235.393Z" fill="#3F3D56"/>
<path d="M367.83 150.11L372.485 102.638L373.981 100.511C375.006 99.0533 376.308 97.8127 377.814 96.86C379.32 95.9073 380.999 95.2611 382.755 94.9587C384.511 94.6563 386.31 94.7035 388.048 95.0977C389.786 95.4919 391.429 96.2253 392.883 97.2557L394.165 98.1649L392.899 146.274L367.83 150.11Z" fill="#3F3D56"/>
<path d="M558.562 382.038C570.595 378.716 575.73 396.98 563.727 400.408C551.695 403.73 546.56 385.466 558.562 382.038Z" fill="#3F3D56"/>
<path d="M491.843 405.545C503.877 402.223 509.012 420.487 497.009 423.915C484.976 427.237 479.841 408.973 491.843 405.545Z" fill="#3F3D56"/>
<path d="M464.842 212.919L465.028 212.867L496.023 296.972L500.109 295.824L468.892 211.116C468.824 209.81 468.312 208.567 467.44 207.593C466.568 206.618 465.389 205.971 464.098 205.759C448.598 203.309 442.314 217.062 442.314 217.062L442.376 217.153L474.065 303.14L478.151 301.993L447.395 218.535C456.759 209.279 464.842 212.919 464.842 212.919Z" fill="#3F3D56"/>
<path d="M500.365 410.276C495.942 410.238 491.648 408.789 488.106 406.141C484.565 403.494 481.962 399.785 480.677 395.555C474.762 376.203 460.804 329.835 458.955 317.251C456.547 300.867 470.115 296.208 470.417 296.108C470.783 295.986 476.238 294.459 483.788 292.347C496.622 288.758 516.017 283.332 516.73 283.012C519.735 281.968 522.923 281.555 526.095 281.8C529.268 282.045 532.355 282.942 535.164 284.435C538.059 285.957 540.614 288.052 542.674 290.592C544.734 293.132 546.256 296.064 547.147 299.21L567.111 370.2C568.343 374.552 567.998 379.199 566.136 383.322C564.274 387.444 561.015 390.776 556.935 392.731C541.531 400.128 518.938 409.996 500.668 410.274C500.567 410.276 500.465 410.276 500.365 410.276Z" fill="#9C59DF"/>
<path d="M461.545 210.01L451.509 151.417L450.389 131.643L434.165 136.954L447.848 213.678C447.296 215.171 447.165 216.787 447.47 218.35C447.775 219.912 448.503 221.361 449.576 222.538C450.649 223.714 452.026 224.573 453.554 225.02C455.083 225.468 456.705 225.487 458.243 225.075C459.782 224.663 461.177 223.836 462.277 222.684C463.377 221.533 464.139 220.102 464.48 218.547C464.821 216.992 464.728 215.373 464.21 213.867C463.692 212.362 462.77 211.027 461.545 210.01V210.01Z" fill="#FFB7B7"/>
<path d="M454.255 147.742L428.931 146.365L422.981 98.6086L423.56 98.1065C424.986 96.8703 426.642 95.9277 428.434 95.3328C430.225 94.738 432.116 94.5026 433.999 94.6403C435.882 94.7779 437.719 95.2859 439.404 96.1349C441.09 96.984 442.592 98.1574 443.822 99.5879L444.994 100.95L445.011 101.036L454.255 147.742Z" fill="#3F3D56"/>
<path d="M557.378 381.021L531.495 293.462L470.631 310.653L470.268 309.368L532.403 291.817L532.59 292.45L558.66 380.643L557.378 381.021Z" fill="#3F3D56"/>
<path d="M97.4426 183.765L94.6865 123.7L122.917 68.5437L124.107 69.1524L96.0388 123.993L98.7782 183.704L97.4426 183.765Z" fill="#3F3D56"/>
<path d="M616.331 426H0.668472C0.491182 426 0.321153 425.93 0.195791 425.804C0.0704276 425.679 0 425.509 0 425.332C0 425.155 0.0704276 424.985 0.195791 424.859C0.321153 424.734 0.491182 424.664 0.668472 424.664H616.331C616.509 424.664 616.679 424.734 616.804 424.859C616.93 424.985 617 425.155 617 425.332C617 425.509 616.93 425.679 616.804 425.804C616.679 425.93 616.509 426 616.331 426Z" fill="#CCCCCC"/>
<path d="M140.888 166.492L135.005 149L133.582 90.6939L136.088 82.4213C136.991 79.4438 138.485 76.679 140.482 74.2926C142.479 71.9063 144.937 69.9474 147.71 68.5334C150.483 67.1195 153.512 66.2795 156.617 66.0639C159.723 65.8483 162.839 66.2614 165.781 67.2786C168.723 68.2958 171.428 69.896 173.736 71.9835C176.044 74.0709 177.907 76.6026 179.213 79.4268C180.518 82.2509 181.24 85.3095 181.334 88.4191C181.429 91.5287 180.894 94.6254 179.763 97.5236L166.327 131.936L167.01 133.261L196.119 133.025L206.459 151.628L140.888 166.492Z" fill="#3F3D56"/>
<path d="M326.326 290.964L326.305 290.968L294.041 297.423L266.287 308.595C265.928 308.739 265.545 308.811 265.158 308.808C264.771 308.804 264.389 308.724 264.033 308.572C263.677 308.421 263.354 308.201 263.084 307.925C262.813 307.649 262.599 307.322 262.455 306.963C262.421 306.879 262.391 306.793 262.364 306.706L242.089 238.85C241.876 238.147 241.934 237.39 242.253 236.728C242.572 236.066 243.128 235.548 243.811 235.277L272.073 223.901L272.094 223.897L304.357 217.441L332.111 206.27C332.836 205.978 333.647 205.986 334.366 206.292C335.084 206.598 335.652 207.177 335.944 207.901C335.978 207.985 336.008 208.071 336.034 208.158L356.309 276.015C356.523 276.718 356.464 277.475 356.145 278.137C355.826 278.798 355.27 279.316 354.587 279.588L326.326 290.964Z" fill="#E5E5E5"/>
<path d="M291.705 245.384C284.306 242.774 276.659 240.488 268.978 238.589L268.592 238.494L272.492 251.546L292.362 245.615L291.705 245.384ZM272.797 250.983L269.254 239.125C276.565 240.944 283.84 243.114 290.897 245.58L272.797 250.983ZM330.474 263.027C327.029 261.081 323.536 259.217 319.993 257.436C319.016 256.944 318.036 256.459 317.053 255.982C311.054 253.064 304.963 250.405 298.78 248.003L298.708 247.975L273.659 255.452L280.499 278.345L330.937 263.289L330.474 263.027ZM280.804 277.781L274.223 255.756L298.689 248.454C304.651 250.771 310.545 253.338 316.371 256.155C317.382 256.643 318.39 257.139 319.394 257.643C322.903 259.398 326.367 261.238 329.786 263.16L280.804 277.781ZM330.474 263.027C327.029 261.081 323.536 259.217 319.993 257.436C319.016 256.944 318.036 256.459 317.053 255.982C311.054 253.064 304.963 250.405 298.78 248.003L298.708 247.975L273.659 255.452L280.499 278.345L330.937 263.289L330.474 263.027ZM280.804 277.781L274.223 255.756L298.689 248.454C304.651 250.771 310.545 253.338 316.371 256.155C317.382 256.643 318.39 257.139 319.394 257.643C322.903 259.398 326.367 261.238 329.786 263.16L280.804 277.781ZM291.705 245.384C284.306 242.774 276.659 240.488 268.978 238.589L268.592 238.494L272.492 251.546L292.362 245.615L291.705 245.384ZM272.797 250.983L269.254 239.125C276.565 240.944 283.84 243.114 290.897 245.58L272.797 250.983ZM291.705 245.384C284.306 242.774 276.659 240.488 268.978 238.589L268.592 238.494L272.492 251.546L292.362 245.615L291.705 245.384ZM272.797 250.983L269.254 239.125C276.565 240.944 283.84 243.114 290.897 245.58L272.797 250.983ZM330.474 263.027C327.029 261.081 323.536 259.217 319.993 257.436C319.016 256.944 318.036 256.459 317.053 255.982C311.054 253.064 304.963 250.405 298.78 248.003L298.708 247.975L273.659 255.452L280.499 278.345L330.937 263.289L330.474 263.027ZM280.804 277.781L274.223 255.756L298.689 248.454C304.651 250.771 310.545 253.338 316.371 256.155C317.382 256.643 318.39 257.139 319.394 257.643C322.903 259.398 326.367 261.238 329.786 263.16L280.804 277.781ZM260.175 288.665L260.305 289.099L277.454 283.981L279.334 290.273L262.185 295.392L262.315 295.826L279.898 290.578L277.759 283.417L260.175 288.665ZM284.973 293.317L286.287 297.715L286.709 297.545L285.537 293.622L352.406 273.662L352.276 273.228L284.973 293.317ZM349.099 262.595L348.969 262.161L281.667 282.251L283.806 289.411L351.109 269.322L350.979 268.888L284.111 288.848L282.23 282.555L349.099 262.595ZM299.115 243.127C288.866 239.191 278.338 236.023 267.618 233.65L266.305 229.256L265.883 229.426L267.206 233.854L267.65 234.122C278.328 236.492 288.815 239.652 299.025 243.577L299.097 243.605L339.795 231.457L339.665 231.023L299.115 243.127ZM268.02 252.408L250.871 257.527L251.001 257.961L268.584 252.713L262.083 230.955L261.661 231.124L268.02 252.408ZM340.962 235.363L305.184 246.042L305.767 246.287C311.254 248.594 316.727 251.146 322.186 253.94C322.962 254.337 323.737 254.74 324.512 255.147C328.365 257.17 332.189 259.305 335.983 261.553L336.404 261.658L347.802 258.256L347.672 257.822L336.301 261.216C332.548 258.989 328.76 256.87 324.936 254.859C324.172 254.456 323.406 254.058 322.639 253.664C317.296 250.921 311.924 248.405 306.523 246.115L341.091 235.797L340.962 235.363ZM263.482 299.732L263.612 300.166L280.761 295.047L282.065 299.413L282.488 299.243L281.065 294.484L263.482 299.732ZM252.168 261.867L252.298 262.301L269.447 257.182L276.028 279.207L258.879 284.326L259.008 284.76L276.592 279.511L269.751 256.618L252.168 261.867ZM291.705 245.384C284.306 242.774 276.659 240.488 268.978 238.589L268.592 238.494L272.492 251.546L292.362 245.615L291.705 245.384ZM272.797 250.983L269.254 239.125C276.565 240.944 283.84 243.114 290.897 245.58L272.797 250.983ZM330.474 263.027C327.029 261.081 323.536 259.217 319.993 257.436C319.016 256.944 318.036 256.459 317.053 255.982C311.054 253.064 304.963 250.405 298.78 248.003L298.708 247.975L273.659 255.452L280.499 278.345L330.937 263.289L330.474 263.027ZM280.804 277.781L274.223 255.756L298.689 248.454C304.651 250.771 310.545 253.338 316.371 256.155C317.382 256.643 318.39 257.139 319.394 257.643C322.903 259.398 326.367 261.238 329.786 263.16L280.804 277.781ZM291.705 245.384C284.306 242.774 276.659 240.488 268.978 238.589L268.592 238.494L272.492 251.546L292.362 245.615L291.705 245.384ZM272.797 250.983L269.254 239.125C276.565 240.944 283.84 243.114 290.897 245.58L272.797 250.983ZM330.474 263.027C327.029 261.081 323.536 259.217 319.993 257.436C319.016 256.944 318.036 256.459 317.053 255.982C311.054 253.064 304.963 250.405 298.78 248.003L298.708 247.975L273.659 255.452L280.499 278.345L330.937 263.289L330.474 263.027ZM280.804 277.781L274.223 255.756L298.689 248.454C304.651 250.771 310.545 253.338 316.371 256.155C317.382 256.643 318.39 257.139 319.394 257.643C322.903 259.398 326.367 261.238 329.786 263.16L280.804 277.781Z" fill="white"/>
<path d="M297.465 247.428C299.107 252.923 292.81 268.137 292.81 268.137C292.81 268.137 279.196 258.867 277.554 253.371C276.765 250.732 277.058 247.888 278.367 245.465C279.677 243.041 281.896 241.237 284.536 240.449C287.177 239.661 290.022 239.953 292.447 241.262C294.871 242.571 296.677 244.789 297.465 247.428H297.465Z" fill="#9C59DF"/>
<path d="M291.931 248.608C292.2 249.508 292.196 250.467 291.92 251.364C291.643 252.262 291.106 253.057 290.378 253.649C289.649 254.242 288.761 254.605 287.825 254.693C286.89 254.781 285.95 254.59 285.123 254.144C284.297 253.698 283.621 253.016 283.182 252.187C282.742 251.357 282.559 250.415 282.655 249.481C282.751 248.547 283.122 247.662 283.722 246.939C284.321 246.216 285.121 245.686 286.021 245.418C286.619 245.239 287.246 245.18 287.866 245.244C288.487 245.307 289.089 245.492 289.638 245.789C290.187 246.085 290.672 246.487 291.065 246.97C291.459 247.454 291.753 248.011 291.931 248.608Z" fill="white"/>
<path d="M294.154 275.436C295.701 275.436 296.955 274.183 296.955 272.637C296.955 271.091 295.701 269.837 294.154 269.837C292.607 269.837 291.353 271.091 291.353 272.637C291.353 274.183 292.607 275.436 294.154 275.436Z" fill="#9C59DF"/>
<path d="M324.716 235.83L305.251 241.64C305.226 241.648 305.202 241.653 305.176 241.656L309.62 222.97C309.647 222.854 309.704 222.747 309.785 222.66C309.866 222.573 309.969 222.509 310.083 222.475C310.198 222.441 310.319 222.438 310.434 222.466C310.55 222.494 310.656 222.552 310.742 222.635L320.117 231.486L320.566 231.91L324.716 235.83Z" fill="white"/>
<path opacity="0.2" d="M324.716 235.83L318.07 237.813L319.917 232.104L320.05 231.692L320.117 231.486L320.565 231.91L324.716 235.83Z" fill="black"/>
<path d="M335.554 232.595L318.718 237.62L320.565 231.91L320.698 231.499L323.105 224.057C323.152 223.94 323.223 223.835 323.314 223.747C323.404 223.66 323.512 223.592 323.63 223.549C323.749 223.506 323.875 223.488 324 223.497C324.126 223.506 324.248 223.541 324.359 223.6C324.389 223.617 324.417 223.637 324.443 223.658L335.554 232.595Z" fill="white"/>
</g>
<defs>
<clipPath id="clip0_2_3140">
<rect width="617" height="426" fill="white"/>
</clipPath>
</defs>
</svg>
